<?xml version="1.0" encoding="utf-8"?>
<!-- Generator: Adobe Illustrator 22.0.1, SVG Export Plug-In . SVG Version: 6.00 Build 0)  -->
<svg version="1.1" id="Layer_1" xmlns="http://www.w3.org/2000/svg" xmlns:xlink="http://www.w3.org/1999/xlink" x="0px" y="0px"
	 viewBox="0 0 434 146" style="enable-background:new 0 0 434 146;" xml:space="preserve">
<style type="text/css">
	.st0{fill:#22314E;}
	.st1{font-family:'InterstateMono';}
	.st2{font-size:145.0428px;}
	.st3{fill:none;stroke:#22314E;stroke-width:6;stroke-miterlimit:10;}
</style>
<path id="path39880" class="st0" d="M45.6,35.7c0,6.4-5,11.6-11.2,11.6s-11.2-5.2-11.2-11.6s5-11.6,11.2-11.6S45.6,29.3,45.6,35.7z"
	/>
<path id="path39882" class="st0" d="M45.6,75.1c0,6.4-5,11.6-11.2,11.6s-11.2-5.2-11.2-11.6c0-6.4,5-11.6,11.2-11.6
	S45.6,68.7,45.6,75.1z"/>
<path id="path39884" class="st0" d="M45.6,114.6c0,6.4-5,11.6-11.2,11.6s-11.2-5.2-11.2-11.6s5-11.6,11.2-11.6
	S45.6,108.2,45.6,114.6z"/>
<path id="path39886" class="st0" d="M84.7,75.1c0,6.4-5,11.6-11.2,11.6c-6.2,0-11.2-5.2-11.2-11.6c0-6.4,5-11.6,11.2-11.6
	C79.7,63.5,84.7,68.7,84.7,75.1z"/>
<path id="path39888" class="st0" d="M84.7,35.7c0,6.4-5,11.6-11.2,11.6c-6.2,0-11.2-5.2-11.2-11.6s5-11.6,11.2-11.6
	C79.7,24.1,84.7,29.3,84.7,35.7z"/>
<path id="path39890" class="st0" d="M123.8,75.1c0,6.4-5,11.6-11.2,11.6s-11.2-5.2-11.2-11.6c0-6.4,5-11.6,11.2-11.6
	S123.8,68.7,123.8,75.1z"/>
<path id="path39892" class="st0" d="M123.8,35.7c0,6.4-5,11.6-11.2,11.6s-11.2-5.2-11.2-11.6s5-11.6,11.2-11.6
	S123.8,29.3,123.8,35.7z"/>
<path id="path39894" class="st0" d="M123.8,114.6c0,6.4-5,11.6-11.2,11.6s-11.2-5.2-11.2-11.6s5-11.6,11.2-11.6
	S123.8,108.2,123.8,114.6z"/>
<path id="path39896" class="st0" d="M84.7,114.6c0,6.4-5,11.6-11.2,11.6c-6.2,0-11.2-5.2-11.2-11.6s5-11.6,11.2-11.6
	C79.7,103,84.7,108.2,84.7,114.6z"/>
<text transform="matrix(0.9677 0 0 1 143.3506 125.877)" class="st0 st1 st2">R</text>
<text transform="matrix(0.9677 0 0 1 238.3711 125.877)" class="st0 st1 st2">O</text>
<text transform="matrix(0.9677 0 0 1 335.7773 125.877)" class="st0 st1 st2">L</text>
<polyline class="st3" points="73.5,75.1 112.6,75.1 112.6,35.7 34.4,35.7 34.4,114.6 112.6,114.6 "/>
</svg>
